HIERARCHY
ROOT Hips
{
	OFFSET 0.00000 0.00000 0.00000
	CHANNELS 6 Xposition Yposition Zposition Zrotation Yrotation Xrotation 
	JOINT LHipJoint
	{
		OFFSET 0 0 0
		CHANNELS 3 Zrotation Yrotation Xrotation
		JOINT LeftHip
		{
			OFFSET 1.58161 -1.81893 0.78828
			CHANNELS 3 Zrotation Yrotation Xrotation
			JOINT LeftKnee
			{
				OFFSET 2.53374 -6.96141 0.00000
				CHANNELS 3 Zrotation Yrotation Xrotation
				JOINT LeftAnkle
				{
					OFFSET 2.63509 -7.23986 0.00000
					CHANNELS 3 Zrotation Yrotation Xrotation
					JOINT LeftToe
					{
						OFFSET 0.14115 -0.38781 2.05350
						CHANNELS 3 Zrotation Yrotation Xrotation
						End Site
						{
							OFFSET 0.00000 -0.00000 1.05543
						}
					}
				}
			}
		}
	}
	JOINT RHipJoint
	{
		OFFSET 0 0 0
		CHANNELS 3 Zrotation Yrotation Xrotation
		JOINT RightHip
		{
			OFFSET -1.11138 -1.81893 0.78828
			CHANNELS 3 Zrotation Yrotation Xrotation
			JOINT RightKnee
			{
				OFFSET -2.58392 -7.09926 0.00000
				CHANNELS 3 Zrotation Yrotation Xrotation
				JOINT RightAnkle
				{
					OFFSET -2.66423 -7.31992 0.00000
					CHANNELS 3 Zrotation Yrotation Xrotation
					JOINT RightToe
					{
						OFFSET -0.18831 -0.51739 2.12114
						CHANNELS 3 Zrotation Yrotation Xrotation
						End Site
						{
							OFFSET -0.00000 -0.00000 1.09845
						}
					}
				}
			}
		}
	}
	JOINT lowerback
	{
		OFFSET 0 0 0
		CHANNELS 3 Zrotation Yrotation Xrotation
		JOINT Chest
		{
			OFFSET -0.01511 1.97958 -0.08829
			CHANNELS 3 Zrotation Yrotation Xrotation
			JOINT Chest2
			{
				OFFSET 0.08344 1.97334 -0.04330
				CHANNELS 3 Zrotation Yrotation Xrotation
				JOINT lowerneck
				{
					OFFSET 0 0 0
					CHANNELS 3 Zrotation Yrotation Xrotation
					JOINT Neck
					{
						OFFSET 0.00559 1.76246 0.31246
						CHANNELS 3 Zrotation Yrotation Xrotation
						JOINT Head
						{
							OFFSET -0.07011 1.80354 -0.30524
							CHANNELS 3 Zrotation Yrotation Xrotation
							End Site
							{
								OFFSET -0.02385 1.83547 -0.13906
							}
						}
					}
				}
				JOINT LeftCollar
				{
					OFFSET 0 0 0
					CHANNELS 3 Zrotation Yrotation Xrotation
					JOINT LeftShoulder
					{
						OFFSET 3.20667 1.30156 -0.60240
CHANNELS 3 Zrotation Xrotation Yrotation
						JOINT LeftElbow
						{
OFFSET 0 -4.956630 0.000000
CHANNELS 3 Zrotation Xrotation Yrotation
							JOINT LeftWrist
							{
OFFSET 0 -3.381770 0.000000
CHANNELS 3 Zrotation Xrotation Yrotation
								JOINT lhand
								{
									OFFSET 0 0 0
CHANNELS 3 Zrotation Xrotation Yrotation
									JOINT LFingers
									{
OFFSET 0 -0.662910 0.000000
CHANNELS 3 Zrotation Xrotation Yrotation
										End Site
										{
OFFSET 0 -0.534450 0.000000
										}
									}
								}
								JOINT LThumb
								{
OFFSET 0 0.000000 0.000000
CHANNELS 3 Zrotation Xrotation Yrotation
									End Site
									{
OFFSET 0 -0.542610 0.542610
									}
								}
							}
						}
					}
				}
				JOINT RightCollar
				{
					OFFSET 0 0 0
					CHANNELS 3 Zrotation Yrotation Xrotation
					JOINT RightShoulder
					{
						OFFSET -3.06877 1.34672 -0.60964
CHANNELS 3 Zrotation Xrotation Yrotation
						JOINT RightElbow
						{
OFFSET 0 -5.083650 0.000000
CHANNELS 3 Zrotation Xrotation Yrotation
							JOINT RightWrist
							{
OFFSET 0 -3.359840 0.000000
CHANNELS 3 Zrotation Xrotation Yrotation
								JOINT rhand
								{
									OFFSET 0 0 0
CHANNELS 3 Zrotation Xrotation Yrotation
									JOINT RFingers
									{
OFFSET 0 -0.820760 0.000000
CHANNELS 3 Zrotation Xrotation Yrotation
										End Site
										{
OFFSET 0 -0.661720 0.000000
										}
									}
								}
								JOINT RThumb
								{
OFFSET 0 0.000000 0.000000
CHANNELS 3 Zrotation Xrotation Yrotation
									End Site
									{
OFFSET 0 -0.671820 0.671820
									}
								}
							}
						}
					}
				}
			}
		}
	}
}
MOTION
Frames: 5
Frame Time: 0.008333333333333333
-8.903216 17.947376 5.728609 -31.131382 79.355482 -16.045250 0.000000 0.000000 0.000000 -5.816499 -3.117830 -27.558510 2.319983 9.503005 27.381864 0.396973 -3.221490 -11.231440 0.870038 -5.946889 -16.630554 0.000000 0.000000 0.000000 14.348149 12.255030 -27.790247 -1.949754 -8.760609 25.049423 -0.141260 0.428668 -6.957827 -0.034233 1.194515 -3.284067 -1.723965 0.681452 5.234861 3.997307 0.965219 5.537130 5.091380 0.418345 2.694809 1.980779 0.049359 -11.867184 -4.777428 4.433764 44.630369 -1.631991 2.151943 19.347027 0.000000 0.000000 0.000000 -3.945020 -18.817330 -80.351239 33.292593 -43.553690 13.623244 16.099586 -48.839057 -62.688634 0.000000 0.000000 0.000000 -7.125000 0.000000 0.000000 166.949262 4.167112 -12.400183 0.000000 0.000000 0.000000 -5.248028 -16.097277 74.390363 -36.766918 -46.033369 -16.072074 -42.996518 -51.055873 13.608389 0.000000 0.000000 0.000000 7.125000 0.000000 0.000000 -15.175224 47.699716 1.033346
-8.902252 17.947896 5.727227 -30.971664 79.385366 -15.877318 0.000000 0.000000 0.000000 -5.869478 -3.151661 -27.551665 2.317098 9.497511 27.364462 0.397384 -3.178836 -11.240226 0.889330 -6.010918 -16.816165 0.000000 0.000000 0.000000 14.278978 12.317648 -27.772296 -1.949122 -8.759344 25.045436 -0.142759 0.315747 -7.028770 -0.035919 1.224197 -3.365744 -1.741090 0.678452 5.208197 3.967106 0.960305 5.542054 5.070076 0.415114 2.715495 1.995788 0.053473 -11.869842 -4.749812 4.418492 44.616079 -1.623930 2.151122 19.336011 0.000000 0.000000 0.000000 -3.853313 -18.831161 -80.385576 33.355837 -43.601799 13.666893 16.321467 -48.753198 -62.749866 0.000000 0.000000 0.000000 -7.125000 0.000000 0.000000 167.003098 4.245601 -12.326612 0.000000 0.000000 0.000000 -5.220306 -16.109870 74.420893 -36.808466 -46.061111 -16.101984 -43.043631 -51.182740 13.557933 0.000000 0.000000 0.000000 7.125000 0.000000 0.000000 -15.215201 47.644463 1.015036
-8.901354 17.947827 5.725844 -31.034974 79.396009 -15.919064 0.000000 0.000000 0.000000 -5.861529 -3.188569 -27.547242 2.313297 9.490184 27.341170 0.398974 -3.156926 -11.265176 0.912484 -6.086530 -17.035675 0.000000 0.000000 0.000000 14.269164 12.326080 -27.789160 -1.949537 -8.760173 25.047993 -0.143865 0.301578 -7.062084 -0.034399 1.197795 -3.293173 -1.729617 0.670020 5.181795 3.961577 0.949108 5.537423 5.058326 0.409723 2.726692 1.997447 0.071789 -11.834869 -4.738754 4.435287 44.579932 -1.615083 2.159071 19.302352 0.000000 0.000000 0.000000 -3.783921 -18.826669 -80.388894 33.412996 -43.645065 13.706289 16.420578 -48.756931 -62.660776 0.000000 0.000000 0.000000 -7.125000 0.000000 0.000000 167.048231 4.168469 -12.300486 0.000000 0.000000 0.000000 -5.207243 -16.101784 74.462154 -36.834177 -46.078251 -16.120507 -43.006586 -51.283234 13.524689 0.000000 0.000000 0.000000 7.125000 0.000000 0.000000 -15.171935 47.594838 0.993126
-8.900707 17.947507 5.724881 -31.095434 79.404307 -15.961145 0.000000 0.000000 0.000000 -5.856431 -3.199287 -27.551073 2.309998 9.483906 27.321105 0.400270 -3.155926 -11.284135 0.935177 -6.159712 -17.248564 0.000000 0.000000 0.000000 14.266515 12.319595 -27.807742 -1.949742 -8.760584 25.049293 -0.144049 0.310918 -7.063760 -0.031914 1.153039 -3.170025 -1.728243 0.664353 5.157027 3.964889 0.941390 5.537905 5.061620 0.405505 2.741743 1.972413 0.083358 -11.820597 -4.724511 4.451873 44.560169 -1.599993 2.162870 19.284868 0.000000 0.000000 0.000000 -3.743610 -18.826660 -80.379054 33.450418 -43.673372 13.732108 16.490147 -48.770720 -62.573447 0.000000 0.000000 0.000000 -7.125000 0.000000 0.000000 167.084731 4.090456 -12.283160 0.000000 0.000000 0.000000 -5.191959 -16.108531 74.488122 -36.829089 -46.074901 -16.116863 -42.979555 -51.305997 13.524339 0.000000 0.000000 0.000000 7.125000 0.000000 0.000000 -15.144298 47.589170 0.989026
-8.900223 17.947155 5.724146 -31.118091 79.413834 -15.971743 0.000000 0.000000 0.000000 -5.862713 -3.191598 -27.557544 2.307180 9.478583 27.304039 0.401024 -3.165982 -11.294178 0.954297 -6.220848 -17.426644 0.000000 0.000000 0.000000 14.261380 12.302375 -27.823176 -1.949789 -8.760678 25.049623 -0.143689 0.331435 -7.047801 -0.029719 1.112959 -3.059692 -1.738142 0.660692 5.137706 3.971046 0.936095 5.541948 5.074264 0.402060 2.757095 1.936469 0.088552 -11.821167 -4.714921 4.466989 44.554671 -1.585652 2.163789 19.281127 0.000000 0.000000 0.000000 -3.724939 -18.826720 -80.355656 33.469183 -43.687557 13.745078 16.531057 -48.796240 -62.489287 0.000000 0.000000 0.000000 -7.125000 0.000000 0.000000 167.112474 4.012941 -12.274425 0.000000 0.000000 0.000000 -5.175112 -16.124933 74.505688 -36.804551 -46.058586 -16.099210 -42.957738 -51.274590 13.551718 0.000000 0.000000 0.000000 7.125000 0.000000 0.000000 -15.126504 47.619914 0.999465
